<mxfile host="app.diagrams.net" agent="Mozilla/5.0 (Windows NT 10.0; Win64; x64) AppleWebKit/537.36 (KHTML, like Gecko) Chrome/133.0.0.0 Safari/537.36 Edg/133.0.0.0" version="26.0.16">
  <diagram name="第 1 页" id="0OXSbNNv1Ah_v_ZchnMk">
    <mxGraphModel dx="2853" dy="1107" grid="1" gridSize="10" guides="1" tooltips="1" connect="1" arrows="1" fold="1" page="1" pageScale="1" pageWidth="827" pageHeight="1169" math="0" shadow="0">
      <root>
        <mxCell id="0" />
        <mxCell id="1" parent="0" />
        <mxCell id="OjF7zcH7D06hmHhnlzyV-3" value="" style="edgeStyle=orthogonalEdgeStyle;rounded=0;orthogonalLoop=1;jettySize=auto;html=1;" edge="1" parent="1" source="OjF7zcH7D06hmHhnlzyV-1" target="OjF7zcH7D06hmHhnlzyV-2">
          <mxGeometry relative="1" as="geometry" />
        </mxCell>
        <mxCell id="OjF7zcH7D06hmHhnlzyV-1" value="&lt;div style=&quot;background-color: rgb(245, 245, 245); font-family: Consolas, &amp;quot;Courier New&amp;quot;, monospace; font-weight: normal; font-size: 14px; line-height: 19px; white-space: pre;&quot;&gt;&lt;div style=&quot;&quot;&gt;&lt;span&gt;&lt;font style=&quot;color: rgb(151, 208, 119);&quot;&gt;media_device_init&lt;/font&gt;&lt;/span&gt;&lt;/div&gt;&lt;/div&gt;" style="text;whiteSpace=wrap;html=1;" vertex="1" parent="1">
          <mxGeometry x="240" y="200" width="140" height="30" as="geometry" />
        </mxCell>
        <mxCell id="OjF7zcH7D06hmHhnlzyV-6" value="" style="edgeStyle=orthogonalEdgeStyle;rounded=0;orthogonalLoop=1;jettySize=auto;html=1;" edge="1" parent="1" source="OjF7zcH7D06hmHhnlzyV-2" target="OjF7zcH7D06hmHhnlzyV-5">
          <mxGeometry relative="1" as="geometry" />
        </mxCell>
        <mxCell id="OjF7zcH7D06hmHhnlzyV-17" value="" style="edgeStyle=orthogonalEdgeStyle;rounded=0;orthogonalLoop=1;jettySize=auto;html=1;" edge="1" parent="1" source="OjF7zcH7D06hmHhnlzyV-2" target="OjF7zcH7D06hmHhnlzyV-16">
          <mxGeometry relative="1" as="geometry" />
        </mxCell>
        <mxCell id="OjF7zcH7D06hmHhnlzyV-2" value="&lt;div style=&quot;background-color: rgb(245, 245, 245); font-family: Consolas, &amp;quot;Courier New&amp;quot;, monospace; font-weight: normal; font-size: 14px; line-height: 19px; white-space: pre;&quot;&gt;&lt;div style=&quot;&quot;&gt;&lt;span&gt;&lt;font style=&quot;color: rgb(151, 208, 119);&quot;&gt;media_device_register&lt;/font&gt;&lt;/span&gt;&lt;/div&gt;&lt;/div&gt;" style="text;whiteSpace=wrap;html=1;" vertex="1" parent="1">
          <mxGeometry x="225" y="260" width="170" height="30" as="geometry" />
        </mxCell>
        <mxCell id="OjF7zcH7D06hmHhnlzyV-4" value="&lt;div style=&quot;background-color: rgb(245, 245, 245); font-family: Consolas, &amp;quot;Courier New&amp;quot;, monospace; font-weight: normal; font-size: 14px; line-height: 19px; white-space: pre;&quot;&gt;&lt;div style=&quot;&quot;&gt;&lt;span&gt;&lt;font style=&quot;color: rgb(151, 208, 119);&quot;&gt;media_entity_pads_init&lt;/font&gt;&lt;/span&gt;&lt;/div&gt;&lt;/div&gt;" style="text;whiteSpace=wrap;html=1;" vertex="1" parent="1">
          <mxGeometry x="232.5" y="430" width="175" height="30" as="geometry" />
        </mxCell>
        <mxCell id="OjF7zcH7D06hmHhnlzyV-8" value="" style="edgeStyle=orthogonalEdgeStyle;rounded=0;orthogonalLoop=1;jettySize=auto;html=1;" edge="1" parent="1" source="OjF7zcH7D06hmHhnlzyV-5" target="OjF7zcH7D06hmHhnlzyV-7">
          <mxGeometry relative="1" as="geometry" />
        </mxCell>
        <mxCell id="OjF7zcH7D06hmHhnlzyV-5" value="&lt;div style=&quot;color: #383a42;background-color: #f5f5f5;font-family: Consolas, &#39;Courier New&#39;, monospace;font-weight: normal;font-size: 14px;line-height: 19px;white-space: pre;&quot;&gt;&lt;div&gt;&lt;span style=&quot;color: #4078f2;&quot;&gt;video_register_device&lt;/span&gt;&lt;/div&gt;&lt;/div&gt;" style="text;whiteSpace=wrap;html=1;" vertex="1" parent="1">
          <mxGeometry x="225" y="330" width="170" height="30" as="geometry" />
        </mxCell>
        <mxCell id="OjF7zcH7D06hmHhnlzyV-12" style="edgeStyle=orthogonalEdgeStyle;rounded=0;orthogonalLoop=1;jettySize=auto;html=1;exitX=1;exitY=0.5;exitDx=0;exitDy=0;entryX=0;entryY=0.5;entryDx=0;entryDy=0;" edge="1" parent="1" source="OjF7zcH7D06hmHhnlzyV-7" target="OjF7zcH7D06hmHhnlzyV-11">
          <mxGeometry relative="1" as="geometry" />
        </mxCell>
        <mxCell id="OjF7zcH7D06hmHhnlzyV-14" style="edgeStyle=orthogonalEdgeStyle;rounded=0;orthogonalLoop=1;jettySize=auto;html=1;exitX=1;exitY=0.5;exitDx=0;exitDy=0;entryX=0;entryY=0.5;entryDx=0;entryDy=0;" edge="1" parent="1" source="OjF7zcH7D06hmHhnlzyV-7" target="OjF7zcH7D06hmHhnlzyV-13">
          <mxGeometry relative="1" as="geometry" />
        </mxCell>
        <mxCell id="OjF7zcH7D06hmHhnlzyV-21" style="edgeStyle=orthogonalEdgeStyle;rounded=0;orthogonalLoop=1;jettySize=auto;html=1;exitX=1;exitY=0.5;exitDx=0;exitDy=0;entryX=0;entryY=0.5;entryDx=0;entryDy=0;" edge="1" parent="1" source="OjF7zcH7D06hmHhnlzyV-7" target="OjF7zcH7D06hmHhnlzyV-20">
          <mxGeometry relative="1" as="geometry" />
        </mxCell>
        <mxCell id="OjF7zcH7D06hmHhnlzyV-7" value="&lt;div style=&quot;color: #383a42;background-color: #f5f5f5;font-family: Consolas, &#39;Courier New&#39;, monospace;font-weight: normal;font-size: 14px;line-height: 19px;white-space: pre;&quot;&gt;&lt;div&gt;&lt;span style=&quot;color: #4078f2;&quot;&gt;video_register_media_controller&lt;/span&gt;&lt;/div&gt;&lt;/div&gt;" style="text;whiteSpace=wrap;html=1;" vertex="1" parent="1">
          <mxGeometry x="430" y="330" width="250" height="30" as="geometry" />
        </mxCell>
        <mxCell id="OjF7zcH7D06hmHhnlzyV-11" value="&lt;div style=&quot;background-color: rgb(245, 245, 245); font-family: Consolas, &amp;quot;Courier New&amp;quot;, monospace; font-weight: normal; font-size: 14px; line-height: 19px; white-space: pre;&quot;&gt;&lt;div style=&quot;&quot;&gt;&lt;span&gt;&lt;font style=&quot;color: rgb(151, 208, 119);&quot;&gt;media_devnode_create&lt;/font&gt;&lt;/span&gt;&lt;/div&gt;&lt;/div&gt;" style="text;whiteSpace=wrap;html=1;" vertex="1" parent="1">
          <mxGeometry x="730" y="350" width="160" height="30" as="geometry" />
        </mxCell>
        <mxCell id="OjF7zcH7D06hmHhnlzyV-13" value="&lt;div style=&quot;background-color: rgb(245, 245, 245); font-family: Consolas, &amp;quot;Courier New&amp;quot;, monospace; font-weight: normal; font-size: 14px; line-height: 19px; white-space: pre;&quot;&gt;&lt;div style=&quot;&quot;&gt;&lt;span&gt;&lt;font style=&quot;color: rgb(151, 208, 119);&quot;&gt;media_create_intf_link&lt;/font&gt;&lt;/span&gt;&lt;/div&gt;&lt;/div&gt;" style="text;whiteSpace=wrap;html=1;" vertex="1" parent="1">
          <mxGeometry x="730" y="310" width="180" height="30" as="geometry" />
        </mxCell>
        <mxCell id="OjF7zcH7D06hmHhnlzyV-16" value="&lt;div style=&quot;color: #383a42;background-color: #f5f5f5;font-family: Consolas, &#39;Courier New&#39;, monospace;font-weight: normal;font-size: 14px;line-height: 19px;white-space: pre;&quot;&gt;&lt;div&gt;&lt;span style=&quot;color: #4078f2;&quot;&gt;media_devnode_register&lt;/span&gt;&lt;/div&gt;&lt;/div&gt;" style="text;whiteSpace=wrap;html=1;" vertex="1" parent="1">
          <mxGeometry x="430" y="260" width="180" height="30" as="geometry" />
        </mxCell>
        <mxCell id="OjF7zcH7D06hmHhnlzyV-22" style="edgeStyle=orthogonalEdgeStyle;rounded=0;orthogonalLoop=1;jettySize=auto;html=1;entryX=0;entryY=0.5;entryDx=0;entryDy=0;" edge="1" parent="1" source="OjF7zcH7D06hmHhnlzyV-18" target="OjF7zcH7D06hmHhnlzyV-20">
          <mxGeometry relative="1" as="geometry" />
        </mxCell>
        <mxCell id="OjF7zcH7D06hmHhnlzyV-24" value="" style="edgeStyle=orthogonalEdgeStyle;rounded=0;orthogonalLoop=1;jettySize=auto;html=1;" edge="1" parent="1" source="OjF7zcH7D06hmHhnlzyV-18" target="OjF7zcH7D06hmHhnlzyV-4">
          <mxGeometry relative="1" as="geometry" />
        </mxCell>
        <mxCell id="OjF7zcH7D06hmHhnlzyV-18" value="&lt;div style=&quot;color: #383a42;background-color: #f5f5f5;font-family: Consolas, &#39;Courier New&#39;, monospace;font-weight: normal;font-size: 14px;line-height: 19px;white-space: pre;&quot;&gt;&lt;div&gt;&lt;span style=&quot;color: #4078f2;&quot;&gt;v4l2_device_register_subdev&lt;/span&gt;&lt;/div&gt;&lt;/div&gt;" style="text;whiteSpace=wrap;html=1;" vertex="1" parent="1">
          <mxGeometry x="210" y="380" width="220" height="30" as="geometry" />
        </mxCell>
        <mxCell id="OjF7zcH7D06hmHhnlzyV-20" value="&lt;span style=&quot;color: rgb(151, 208, 119); font-family: Consolas, &amp;quot;Courier New&amp;quot;, monospace; font-size: 14px; font-style: normal; font-variant-ligatures: normal; font-variant-caps: normal; font-weight: 400; letter-spacing: normal; orphans: 2; text-align: left; text-indent: 0px; text-transform: none; widows: 2; word-spacing: 0px; -webkit-text-stroke-width: 0px; white-space: pre; background-color: rgb(245, 245, 245); text-decoration-thickness: initial; text-decoration-style: initial; text-decoration-color: initial; display: inline !important; float: none;&quot;&gt;media_device_register_entity&lt;/span&gt;" style="text;whiteSpace=wrap;html=1;" vertex="1" parent="1">
          <mxGeometry x="730" y="380" width="220" height="30" as="geometry" />
        </mxCell>
        <mxCell id="OjF7zcH7D06hmHhnlzyV-23" value="注册video_device或subdev都会注册media entity" style="text;html=1;align=center;verticalAlign=middle;whiteSpace=wrap;rounded=0;" vertex="1" parent="1">
          <mxGeometry x="-80" y="350" width="270" height="30" as="geometry" />
        </mxCell>
      </root>
    </mxGraphModel>
  </diagram>
</mxfile>
